<mxfile host="app.diagrams.net" agent="Mozilla/5.0 (Windows NT 10.0; Win64; x64) AppleWebKit/537.36 (KHTML, like Gecko) Chrome/134.0.0.0 Safari/537.36 Edg/134.0.0.0" version="26.1.0">
  <diagram name="第 1 页" id="6SczGGzBNA3okv_jIW4L">
    <mxGraphModel dx="626" dy="1059" grid="1" gridSize="10" guides="1" tooltips="1" connect="1" arrows="1" fold="1" page="1" pageScale="1" pageWidth="827" pageHeight="1169" math="0" shadow="0">
      <root>
        <mxCell id="0" />
        <mxCell id="1" parent="0" />
        <mxCell id="EBNIDHaAm6Zc6_ZftzQL-24" style="edgeStyle=orthogonalEdgeStyle;rounded=0;orthogonalLoop=1;jettySize=auto;html=1;entryX=0.5;entryY=0;entryDx=0;entryDy=0;" edge="1" parent="1" source="EBNIDHaAm6Zc6_ZftzQL-1" target="EBNIDHaAm6Zc6_ZftzQL-2">
          <mxGeometry relative="1" as="geometry" />
        </mxCell>
        <mxCell id="EBNIDHaAm6Zc6_ZftzQL-1" value="Input" style="rounded=0;whiteSpace=wrap;html=1;labelBackgroundColor=none;strokeColor=default;fillColor=none;align=center;fontStyle=0;fontSize=18;" vertex="1" parent="1">
          <mxGeometry x="50" y="62" width="70" height="30" as="geometry" />
        </mxCell>
        <mxCell id="EBNIDHaAm6Zc6_ZftzQL-28" style="edgeStyle=orthogonalEdgeStyle;rounded=0;orthogonalLoop=1;jettySize=auto;html=1;entryX=0.5;entryY=0;entryDx=0;entryDy=0;" edge="1" parent="1" source="EBNIDHaAm6Zc6_ZftzQL-2" target="EBNIDHaAm6Zc6_ZftzQL-3">
          <mxGeometry relative="1" as="geometry" />
        </mxCell>
        <mxCell id="EBNIDHaAm6Zc6_ZftzQL-2" value="Conv" style="rounded=0;whiteSpace=wrap;html=1;labelBackgroundColor=none;strokeColor=default;fillColor=none;align=center;fontStyle=0;fontSize=18;" vertex="1" parent="1">
          <mxGeometry x="50" y="132" width="70" height="30" as="geometry" />
        </mxCell>
        <mxCell id="EBNIDHaAm6Zc6_ZftzQL-32" style="edgeStyle=orthogonalEdgeStyle;rounded=0;orthogonalLoop=1;jettySize=auto;html=1;entryX=0.5;entryY=0;entryDx=0;entryDy=0;" edge="1" parent="1" source="EBNIDHaAm6Zc6_ZftzQL-3" target="EBNIDHaAm6Zc6_ZftzQL-4">
          <mxGeometry relative="1" as="geometry" />
        </mxCell>
        <mxCell id="EBNIDHaAm6Zc6_ZftzQL-3" value="Conv" style="rounded=0;whiteSpace=wrap;html=1;labelBackgroundColor=none;strokeColor=default;fillColor=none;align=center;fontStyle=0;fontSize=18;" vertex="1" parent="1">
          <mxGeometry x="50" y="202" width="70" height="30" as="geometry" />
        </mxCell>
        <mxCell id="EBNIDHaAm6Zc6_ZftzQL-33" style="edgeStyle=orthogonalEdgeStyle;rounded=0;orthogonalLoop=1;jettySize=auto;html=1;entryX=0.5;entryY=0;entryDx=0;entryDy=0;" edge="1" parent="1" source="EBNIDHaAm6Zc6_ZftzQL-4" target="EBNIDHaAm6Zc6_ZftzQL-5">
          <mxGeometry relative="1" as="geometry" />
        </mxCell>
        <mxCell id="EBNIDHaAm6Zc6_ZftzQL-4" value="C3K2" style="rounded=0;whiteSpace=wrap;html=1;labelBackgroundColor=none;strokeColor=default;fillColor=none;align=center;fontStyle=0;fontSize=18;" vertex="1" parent="1">
          <mxGeometry x="50" y="273" width="70" height="30" as="geometry" />
        </mxCell>
        <mxCell id="EBNIDHaAm6Zc6_ZftzQL-34" style="edgeStyle=orthogonalEdgeStyle;rounded=0;orthogonalLoop=1;jettySize=auto;html=1;entryX=0.5;entryY=0;entryDx=0;entryDy=0;" edge="1" parent="1" source="EBNIDHaAm6Zc6_ZftzQL-5" target="EBNIDHaAm6Zc6_ZftzQL-6">
          <mxGeometry relative="1" as="geometry" />
        </mxCell>
        <mxCell id="EBNIDHaAm6Zc6_ZftzQL-5" value="Conv" style="rounded=0;whiteSpace=wrap;html=1;labelBackgroundColor=none;strokeColor=default;fillColor=none;align=center;fontStyle=0;fontSize=18;" vertex="1" parent="1">
          <mxGeometry x="50" y="343" width="70" height="30" as="geometry" />
        </mxCell>
        <mxCell id="EBNIDHaAm6Zc6_ZftzQL-35" style="edgeStyle=orthogonalEdgeStyle;rounded=0;orthogonalLoop=1;jettySize=auto;html=1;entryX=0.5;entryY=0;entryDx=0;entryDy=0;" edge="1" parent="1" source="EBNIDHaAm6Zc6_ZftzQL-6" target="EBNIDHaAm6Zc6_ZftzQL-7">
          <mxGeometry relative="1" as="geometry" />
        </mxCell>
        <mxCell id="EBNIDHaAm6Zc6_ZftzQL-48" style="edgeStyle=orthogonalEdgeStyle;rounded=0;orthogonalLoop=1;jettySize=auto;html=1;entryX=0;entryY=0.5;entryDx=0;entryDy=0;" edge="1" parent="1" source="EBNIDHaAm6Zc6_ZftzQL-6" target="EBNIDHaAm6Zc6_ZftzQL-45">
          <mxGeometry relative="1" as="geometry" />
        </mxCell>
        <mxCell id="EBNIDHaAm6Zc6_ZftzQL-6" value="C3K2" style="rounded=0;whiteSpace=wrap;html=1;labelBackgroundColor=none;strokeColor=default;fillColor=none;align=center;fontStyle=0;fontSize=18;" vertex="1" parent="1">
          <mxGeometry x="50" y="413" width="70" height="30" as="geometry" />
        </mxCell>
        <mxCell id="EBNIDHaAm6Zc6_ZftzQL-36" style="edgeStyle=orthogonalEdgeStyle;rounded=0;orthogonalLoop=1;jettySize=auto;html=1;entryX=0.5;entryY=0;entryDx=0;entryDy=0;" edge="1" parent="1" source="EBNIDHaAm6Zc6_ZftzQL-7" target="EBNIDHaAm6Zc6_ZftzQL-8">
          <mxGeometry relative="1" as="geometry" />
        </mxCell>
        <mxCell id="EBNIDHaAm6Zc6_ZftzQL-7" value="Conv" style="rounded=0;whiteSpace=wrap;html=1;labelBackgroundColor=none;strokeColor=default;fillColor=none;align=center;fontStyle=0;fontSize=18;" vertex="1" parent="1">
          <mxGeometry x="50" y="483" width="70" height="30" as="geometry" />
        </mxCell>
        <mxCell id="EBNIDHaAm6Zc6_ZftzQL-37" style="edgeStyle=orthogonalEdgeStyle;rounded=0;orthogonalLoop=1;jettySize=auto;html=1;entryX=0.5;entryY=0;entryDx=0;entryDy=0;" edge="1" parent="1" source="EBNIDHaAm6Zc6_ZftzQL-8" target="EBNIDHaAm6Zc6_ZftzQL-9">
          <mxGeometry relative="1" as="geometry" />
        </mxCell>
        <mxCell id="EBNIDHaAm6Zc6_ZftzQL-47" style="edgeStyle=orthogonalEdgeStyle;rounded=0;orthogonalLoop=1;jettySize=auto;html=1;entryX=0;entryY=0.5;entryDx=0;entryDy=0;" edge="1" parent="1" source="EBNIDHaAm6Zc6_ZftzQL-8" target="EBNIDHaAm6Zc6_ZftzQL-42">
          <mxGeometry relative="1" as="geometry" />
        </mxCell>
        <mxCell id="EBNIDHaAm6Zc6_ZftzQL-8" value="C3K2" style="rounded=0;whiteSpace=wrap;html=1;labelBackgroundColor=none;strokeColor=default;fillColor=none;align=center;fontStyle=0;fontSize=18;" vertex="1" parent="1">
          <mxGeometry x="50" y="553" width="70" height="30" as="geometry" />
        </mxCell>
        <mxCell id="EBNIDHaAm6Zc6_ZftzQL-38" style="edgeStyle=orthogonalEdgeStyle;rounded=0;orthogonalLoop=1;jettySize=auto;html=1;entryX=0.5;entryY=0;entryDx=0;entryDy=0;" edge="1" parent="1" source="EBNIDHaAm6Zc6_ZftzQL-9" target="EBNIDHaAm6Zc6_ZftzQL-10">
          <mxGeometry relative="1" as="geometry" />
        </mxCell>
        <mxCell id="EBNIDHaAm6Zc6_ZftzQL-9" value="Conv" style="rounded=0;whiteSpace=wrap;html=1;labelBackgroundColor=none;strokeColor=default;fillColor=none;align=center;fontStyle=0;fontSize=18;" vertex="1" parent="1">
          <mxGeometry x="50" y="623" width="70" height="30" as="geometry" />
        </mxCell>
        <mxCell id="EBNIDHaAm6Zc6_ZftzQL-39" style="edgeStyle=orthogonalEdgeStyle;rounded=0;orthogonalLoop=1;jettySize=auto;html=1;entryX=0.5;entryY=0;entryDx=0;entryDy=0;" edge="1" parent="1" source="EBNIDHaAm6Zc6_ZftzQL-10" target="EBNIDHaAm6Zc6_ZftzQL-11">
          <mxGeometry relative="1" as="geometry" />
        </mxCell>
        <mxCell id="EBNIDHaAm6Zc6_ZftzQL-10" value="C3K2" style="rounded=0;whiteSpace=wrap;html=1;labelBackgroundColor=none;strokeColor=default;fillColor=none;align=center;fontStyle=0;fontSize=18;" vertex="1" parent="1">
          <mxGeometry x="50" y="694" width="70" height="30" as="geometry" />
        </mxCell>
        <mxCell id="EBNIDHaAm6Zc6_ZftzQL-40" style="edgeStyle=orthogonalEdgeStyle;rounded=0;orthogonalLoop=1;jettySize=auto;html=1;entryX=0.5;entryY=0;entryDx=0;entryDy=0;" edge="1" parent="1" source="EBNIDHaAm6Zc6_ZftzQL-11" target="EBNIDHaAm6Zc6_ZftzQL-12">
          <mxGeometry relative="1" as="geometry" />
        </mxCell>
        <mxCell id="EBNIDHaAm6Zc6_ZftzQL-11" value="SPPF" style="rounded=0;whiteSpace=wrap;html=1;labelBackgroundColor=none;strokeColor=default;fillColor=none;align=center;fontStyle=0;fontSize=18;" vertex="1" parent="1">
          <mxGeometry x="50" y="764" width="70" height="30" as="geometry" />
        </mxCell>
        <mxCell id="EBNIDHaAm6Zc6_ZftzQL-46" style="edgeStyle=orthogonalEdgeStyle;rounded=0;orthogonalLoop=1;jettySize=auto;html=1;entryX=0.5;entryY=1;entryDx=0;entryDy=0;" edge="1" parent="1" source="EBNIDHaAm6Zc6_ZftzQL-12" target="EBNIDHaAm6Zc6_ZftzQL-41">
          <mxGeometry relative="1" as="geometry" />
        </mxCell>
        <mxCell id="EBNIDHaAm6Zc6_ZftzQL-12" value="C2PSA" style="rounded=0;whiteSpace=wrap;html=1;labelBackgroundColor=none;strokeColor=default;fillColor=none;align=center;fontStyle=0;fontSize=18;" vertex="1" parent="1">
          <mxGeometry x="50" y="834" width="70" height="30" as="geometry" />
        </mxCell>
        <mxCell id="EBNIDHaAm6Zc6_ZftzQL-49" value="" style="edgeStyle=orthogonalEdgeStyle;rounded=0;orthogonalLoop=1;jettySize=auto;html=1;" edge="1" parent="1" source="EBNIDHaAm6Zc6_ZftzQL-41" target="EBNIDHaAm6Zc6_ZftzQL-42">
          <mxGeometry relative="1" as="geometry" />
        </mxCell>
        <mxCell id="EBNIDHaAm6Zc6_ZftzQL-71" style="edgeStyle=orthogonalEdgeStyle;rounded=0;orthogonalLoop=1;jettySize=auto;html=1;entryX=0;entryY=0.5;entryDx=0;entryDy=0;" edge="1" parent="1" source="EBNIDHaAm6Zc6_ZftzQL-41" target="EBNIDHaAm6Zc6_ZftzQL-65">
          <mxGeometry relative="1" as="geometry" />
        </mxCell>
        <mxCell id="EBNIDHaAm6Zc6_ZftzQL-41" value="Upsample" style="rounded=0;whiteSpace=wrap;html=1;labelBackgroundColor=none;strokeColor=default;fillColor=none;align=center;fontStyle=0;fontSize=18;" vertex="1" parent="1">
          <mxGeometry x="265" y="829" width="100" height="40" as="geometry" />
        </mxCell>
        <mxCell id="EBNIDHaAm6Zc6_ZftzQL-50" value="" style="edgeStyle=orthogonalEdgeStyle;rounded=0;orthogonalLoop=1;jettySize=auto;html=1;" edge="1" parent="1" source="EBNIDHaAm6Zc6_ZftzQL-42" target="EBNIDHaAm6Zc6_ZftzQL-43">
          <mxGeometry relative="1" as="geometry" />
        </mxCell>
        <mxCell id="EBNIDHaAm6Zc6_ZftzQL-42" value="Concat" style="rounded=0;whiteSpace=wrap;html=1;labelBackgroundColor=none;strokeColor=default;fillColor=none;align=center;fontStyle=0;fontSize=18;" vertex="1" parent="1">
          <mxGeometry x="265" y="724" width="100" height="40" as="geometry" />
        </mxCell>
        <mxCell id="EBNIDHaAm6Zc6_ZftzQL-51" value="" style="edgeStyle=orthogonalEdgeStyle;rounded=0;orthogonalLoop=1;jettySize=auto;html=1;" edge="1" parent="1" source="EBNIDHaAm6Zc6_ZftzQL-43" target="EBNIDHaAm6Zc6_ZftzQL-44">
          <mxGeometry relative="1" as="geometry" />
        </mxCell>
        <mxCell id="EBNIDHaAm6Zc6_ZftzQL-43" value="C3K2" style="rounded=0;whiteSpace=wrap;html=1;labelBackgroundColor=none;strokeColor=default;fillColor=none;align=center;fontStyle=0;fontSize=18;" vertex="1" parent="1">
          <mxGeometry x="265" y="565" width="100" height="40" as="geometry" />
        </mxCell>
        <mxCell id="EBNIDHaAm6Zc6_ZftzQL-52" style="edgeStyle=orthogonalEdgeStyle;rounded=0;orthogonalLoop=1;jettySize=auto;html=1;entryX=0.5;entryY=1;entryDx=0;entryDy=0;" edge="1" parent="1" source="EBNIDHaAm6Zc6_ZftzQL-44" target="EBNIDHaAm6Zc6_ZftzQL-45">
          <mxGeometry relative="1" as="geometry" />
        </mxCell>
        <mxCell id="EBNIDHaAm6Zc6_ZftzQL-67" style="edgeStyle=orthogonalEdgeStyle;rounded=0;orthogonalLoop=1;jettySize=auto;html=1;entryX=0;entryY=0.5;entryDx=0;entryDy=0;exitX=1;exitY=0.5;exitDx=0;exitDy=0;" edge="1" parent="1" source="EBNIDHaAm6Zc6_ZftzQL-43" target="EBNIDHaAm6Zc6_ZftzQL-58">
          <mxGeometry relative="1" as="geometry" />
        </mxCell>
        <mxCell id="EBNIDHaAm6Zc6_ZftzQL-44" value="Upsample" style="rounded=0;whiteSpace=wrap;html=1;labelBackgroundColor=none;strokeColor=default;fillColor=none;align=center;fontStyle=0;fontSize=18;" vertex="1" parent="1">
          <mxGeometry x="265" y="413" width="100" height="40" as="geometry" />
        </mxCell>
        <mxCell id="EBNIDHaAm6Zc6_ZftzQL-66" style="edgeStyle=orthogonalEdgeStyle;rounded=0;orthogonalLoop=1;jettySize=auto;html=1;entryX=0.5;entryY=0;entryDx=0;entryDy=0;" edge="1" parent="1" source="EBNIDHaAm6Zc6_ZftzQL-45" target="EBNIDHaAm6Zc6_ZftzQL-54">
          <mxGeometry relative="1" as="geometry" />
        </mxCell>
        <mxCell id="EBNIDHaAm6Zc6_ZftzQL-45" value="Concat" style="rounded=0;whiteSpace=wrap;html=1;labelBackgroundColor=none;strokeColor=default;fillColor=none;align=center;fontStyle=0;fontSize=18;" vertex="1" parent="1">
          <mxGeometry x="265" y="197" width="100" height="40" as="geometry" />
        </mxCell>
        <mxCell id="EBNIDHaAm6Zc6_ZftzQL-53" style="edgeStyle=orthogonalEdgeStyle;rounded=0;orthogonalLoop=1;jettySize=auto;html=1;entryX=0.5;entryY=0;entryDx=0;entryDy=0;" edge="1" parent="1" source="EBNIDHaAm6Zc6_ZftzQL-54" target="EBNIDHaAm6Zc6_ZftzQL-56">
          <mxGeometry relative="1" as="geometry" />
        </mxCell>
        <mxCell id="EBNIDHaAm6Zc6_ZftzQL-54" value="C3K2" style="rounded=0;whiteSpace=wrap;html=1;labelBackgroundColor=none;strokeColor=default;fillColor=none;align=center;fontStyle=0;fontSize=18;" vertex="1" parent="1">
          <mxGeometry x="480" y="162" width="70" height="30" as="geometry" />
        </mxCell>
        <mxCell id="EBNIDHaAm6Zc6_ZftzQL-55" style="edgeStyle=orthogonalEdgeStyle;rounded=0;orthogonalLoop=1;jettySize=auto;html=1;entryX=0.5;entryY=0;entryDx=0;entryDy=0;" edge="1" parent="1" source="EBNIDHaAm6Zc6_ZftzQL-56" target="EBNIDHaAm6Zc6_ZftzQL-58">
          <mxGeometry relative="1" as="geometry" />
        </mxCell>
        <mxCell id="EBNIDHaAm6Zc6_ZftzQL-56" value="Conv" style="rounded=0;whiteSpace=wrap;html=1;labelBackgroundColor=none;strokeColor=default;fillColor=none;align=center;fontStyle=0;fontSize=18;" vertex="1" parent="1">
          <mxGeometry x="480" y="232" width="70" height="30" as="geometry" />
        </mxCell>
        <mxCell id="EBNIDHaAm6Zc6_ZftzQL-57" style="edgeStyle=orthogonalEdgeStyle;rounded=0;orthogonalLoop=1;jettySize=auto;html=1;entryX=0.5;entryY=0;entryDx=0;entryDy=0;" edge="1" parent="1" source="EBNIDHaAm6Zc6_ZftzQL-58" target="EBNIDHaAm6Zc6_ZftzQL-62">
          <mxGeometry relative="1" as="geometry">
            <mxPoint x="515" y="372" as="targetPoint" />
          </mxGeometry>
        </mxCell>
        <mxCell id="EBNIDHaAm6Zc6_ZftzQL-58" value="Concat" style="rounded=0;whiteSpace=wrap;html=1;labelBackgroundColor=none;strokeColor=default;fillColor=none;align=center;fontStyle=0;fontSize=18;" vertex="1" parent="1">
          <mxGeometry x="480" y="302" width="70" height="30" as="geometry" />
        </mxCell>
        <mxCell id="EBNIDHaAm6Zc6_ZftzQL-61" style="edgeStyle=orthogonalEdgeStyle;rounded=0;orthogonalLoop=1;jettySize=auto;html=1;entryX=0.5;entryY=0;entryDx=0;entryDy=0;" edge="1" parent="1" source="EBNIDHaAm6Zc6_ZftzQL-62" target="EBNIDHaAm6Zc6_ZftzQL-64">
          <mxGeometry relative="1" as="geometry" />
        </mxCell>
        <mxCell id="EBNIDHaAm6Zc6_ZftzQL-62" value="C3K2" style="rounded=0;whiteSpace=wrap;html=1;labelBackgroundColor=none;strokeColor=default;fillColor=none;align=center;fontStyle=0;fontSize=18;" vertex="1" parent="1">
          <mxGeometry x="480" y="442" width="70" height="30" as="geometry" />
        </mxCell>
        <mxCell id="EBNIDHaAm6Zc6_ZftzQL-63" style="edgeStyle=orthogonalEdgeStyle;rounded=0;orthogonalLoop=1;jettySize=auto;html=1;entryX=0.5;entryY=0;entryDx=0;entryDy=0;" edge="1" parent="1" source="EBNIDHaAm6Zc6_ZftzQL-64" target="EBNIDHaAm6Zc6_ZftzQL-65">
          <mxGeometry relative="1" as="geometry" />
        </mxCell>
        <mxCell id="EBNIDHaAm6Zc6_ZftzQL-64" value="Conv" style="rounded=0;whiteSpace=wrap;html=1;labelBackgroundColor=none;strokeColor=default;fillColor=none;align=center;fontStyle=0;fontSize=18;" vertex="1" parent="1">
          <mxGeometry x="480" y="512" width="70" height="30" as="geometry" />
        </mxCell>
        <mxCell id="EBNIDHaAm6Zc6_ZftzQL-69" value="" style="edgeStyle=orthogonalEdgeStyle;rounded=0;orthogonalLoop=1;jettySize=auto;html=1;" edge="1" parent="1" source="EBNIDHaAm6Zc6_ZftzQL-65" target="EBNIDHaAm6Zc6_ZftzQL-68">
          <mxGeometry relative="1" as="geometry" />
        </mxCell>
        <mxCell id="EBNIDHaAm6Zc6_ZftzQL-65" value="Concat" style="rounded=0;whiteSpace=wrap;html=1;labelBackgroundColor=none;strokeColor=default;fillColor=none;align=center;fontStyle=0;fontSize=18;" vertex="1" parent="1">
          <mxGeometry x="480" y="583" width="70" height="30" as="geometry" />
        </mxCell>
        <mxCell id="EBNIDHaAm6Zc6_ZftzQL-68" value="C3K2" style="rounded=0;whiteSpace=wrap;html=1;labelBackgroundColor=none;strokeColor=default;fillColor=none;align=center;fontStyle=0;fontSize=18;" vertex="1" parent="1">
          <mxGeometry x="480" y="694" width="70" height="30" as="geometry" />
        </mxCell>
        <mxCell id="EBNIDHaAm6Zc6_ZftzQL-72" style="edgeStyle=orthogonalEdgeStyle;rounded=0;orthogonalLoop=1;jettySize=auto;html=1;entryX=0.5;entryY=0;entryDx=0;entryDy=0;" edge="1" parent="1" source="EBNIDHaAm6Zc6_ZftzQL-73" target="EBNIDHaAm6Zc6_ZftzQL-75">
          <mxGeometry relative="1" as="geometry" />
        </mxCell>
        <mxCell id="EBNIDHaAm6Zc6_ZftzQL-73" value="Detect" style="rounded=0;whiteSpace=wrap;html=1;labelBackgroundColor=none;strokeColor=default;fillColor=none;align=center;fontStyle=0;fontSize=18;" vertex="1" parent="1">
          <mxGeometry x="660" y="290" width="70" height="30" as="geometry" />
        </mxCell>
        <mxCell id="EBNIDHaAm6Zc6_ZftzQL-74" style="edgeStyle=orthogonalEdgeStyle;rounded=0;orthogonalLoop=1;jettySize=auto;html=1;entryX=0.5;entryY=0;entryDx=0;entryDy=0;" edge="1" parent="1" target="EBNIDHaAm6Zc6_ZftzQL-76">
          <mxGeometry relative="1" as="geometry">
            <mxPoint x="695" y="391" as="sourcePoint" />
          </mxGeometry>
        </mxCell>
        <mxCell id="EBNIDHaAm6Zc6_ZftzQL-75" value="&#xa;&lt;span style=&quot;color: rgb(0, 0, 0); font-family: Helvetica; font-size: 18px; font-style: normal; font-variant-ligatures: normal; font-variant-caps: normal; font-weight: 400; letter-spacing: normal; orphans: 2; text-align: center; text-indent: 0px; text-transform: none; widows: 2; word-spacing: 0px; -webkit-text-stroke-width: 0px; white-space: normal; background-color: rgb(251, 251, 251); text-decoration-thickness: initial; text-decoration-style: initial; text-decoration-color: initial; display: inline !important; float: none;&quot;&gt;Detect&lt;/span&gt;&#xa;&#xa;" style="rounded=0;whiteSpace=wrap;html=1;labelBackgroundColor=none;strokeColor=default;fillColor=none;align=center;fontStyle=0;fontSize=18;" vertex="1" parent="1">
          <mxGeometry x="660" y="360" width="70" height="30" as="geometry" />
        </mxCell>
        <mxCell id="EBNIDHaAm6Zc6_ZftzQL-76" value="&lt;span style=&quot;color: rgb(0, 0, 0); font-family: Helvetica; font-size: 18px; font-style: normal; font-variant-ligatures: normal; font-variant-caps: normal; font-weight: 400; letter-spacing: normal; orphans: 2; text-align: center; text-indent: 0px; text-transform: none; widows: 2; word-spacing: 0px; -webkit-text-stroke-width: 0px; white-space: normal; background-color: rgb(251, 251, 251); text-decoration-thickness: initial; text-decoration-style: initial; text-decoration-color: initial; float: none; display: inline !important;&quot;&gt;Detect&lt;/span&gt;" style="rounded=0;whiteSpace=wrap;html=1;labelBackgroundColor=none;strokeColor=default;fillColor=none;align=center;fontStyle=0;fontSize=18;" vertex="1" parent="1">
          <mxGeometry x="660" y="431" width="70" height="30" as="geometry" />
        </mxCell>
      </root>
    </mxGraphModel>
  </diagram>
</mxfile>
